<?xml version="1.0" encoding="utf-8"?><svg viewBox="0 0 22 18" xmlns="http://www.w3.org/2000/svg" xmlns:xlink="http://www.w3.org/1999/xlink"><style>:root>svg{display:none}:root>svg:target{display:block}</style><svg viewBox="0 0 22 18" id="favorit-icon" xmlns="http://www.w3.org/2000/svg"><path data-name="Forma 1" class="acls-1" d="M21.99 5.82a6.208 6.208 0 00-1.849-4.1A5.871 5.871 0 0016 0c-2.311 0-3.948 1.78-4.827 2.74a2.156 2.156 0 01-.156.17l-.083-.09C10.134 1.9 8.458 0 5.996 0a5.873 5.873 0 00-4.139 1.72 6.208 6.208 0 00-1.849 4.1 6.845 6.845 0 001.271 4.34 29.307 29.307 0 004.763 4.75C7.747 16.32 9.992 18 11.007 18c1.032 0 3.269-1.68 4.965-3.09a29.234 29.234 0 004.746-4.75 6.935 6.935 0 001.272-4.34zm-2.376 3.61a27 27 0 01-4.431 4.42c-2.406 2-3.831 2.79-4.172 2.82-.342-.03-1.77-.83-4.188-2.84a26.78 26.78 0 01-4.437-4.4 5.6 5.6 0 01-1.054-3.54 4.807 4.807 0 014.666-4.57c1.863 0 3.216 1.54 3.943 2.37A1.52 1.52 0 0011 4.45a1.731 1.731 0 001.151-.81c.794-.87 2.122-2.32 3.851-2.32a4.807 4.807 0 014.666 4.57 5.528 5.528 0 01-1.054 3.54z"/></svg><svg viewBox="0 0 16 16" id="search-icon" xmlns="http://www.w3.org/2000/svg"><path clip-rule="evenodd" d="M11.244 10.174l4.035 4.035a.756.756 0 11-1.07 1.07l-4.035-4.035a6 6 0 111.07-1.07zM6.5 11a4.5 4.5 0 100-9 4.5 4.5 0 000 9z"/></svg><svg viewBox="0 0 16 17" id="share-icon" xmlns="http://www.w3.org/2000/svg"><path fill-rule="evenodd" clip-rule="evenodd" d="M10.559 12.108a3.036 3.036 0 012.403-1.187A3.04 3.04 0 0112.966 17a3.041 3.041 0 01-3.035-3.04c0-.352.064-.695.177-1.012l-4.66-2.609a3.033 3.033 0 01-2.41 1.197A3.042 3.042 0 010 8.496a3.041 3.041 0 013.034-3.039c.98 0 1.854.466 2.407 1.193l4.656-2.605A3.04 3.04 0 0112.959 0a3.04 3.04 0 010 6.078c-.98 0-1.854-.469-2.407-1.193L5.892 7.49A3.054 3.054 0 015.897 9.5l4.663 2.609zm4.486-9.065c0-1.151-.934-2.086-2.083-2.086a2.086 2.086 0 000 4.172 2.086 2.086 0 002.083-2.086zm-12.007 7.54a2.086 2.086 0 010-4.173 2.086 2.086 0 010 4.173zm7.841 3.374c0 1.151.934 2.086 2.083 2.086a2.086 2.086 0 000-4.172 2.086 2.086 0 00-2.083 2.086z"/></svg></svg>