<?xml version="1.0" encoding="utf-8"?><svg viewBox="0 0 512 512" xmlns="http://www.w3.org/2000/svg" xmlns:xlink="http://www.w3.org/1999/xlink"><style>:root>svg{display:none}:root>svg:target{display:block}</style><svg viewBox="0 0 7 14" id="facebook-icon" xmlns="http://www.w3.org/2000/svg"><path d="M4.541 13.164V7.198h2.065l.306-2.325h-2.37V3.388c0-.67.192-1.129 1.19-1.129H7V.172A18.094 18.094 0 005.154.079c-1.829 0-3.08 1.086-3.08 3.071v1.715H0V7.19h2.074v5.965H4.54v.009z"/></svg><svg viewBox="0 0 22 18" id="favorit-icon" xmlns="http://www.w3.org/2000/svg"><path data-name="Forma 1" class="bcls-1" d="M21.99 5.82a6.208 6.208 0 00-1.849-4.1A5.871 5.871 0 0016 0c-2.311 0-3.948 1.78-4.827 2.74a2.156 2.156 0 01-.156.17l-.083-.09C10.134 1.9 8.458 0 5.996 0a5.873 5.873 0 00-4.139 1.72 6.208 6.208 0 00-1.849 4.1 6.845 6.845 0 001.271 4.34 29.307 29.307 0 004.763 4.75C7.747 16.32 9.992 18 11.007 18c1.032 0 3.269-1.68 4.965-3.09a29.234 29.234 0 004.746-4.75 6.935 6.935 0 001.272-4.34zm-2.376 3.61a27 27 0 01-4.431 4.42c-2.406 2-3.831 2.79-4.172 2.82-.342-.03-1.77-.83-4.188-2.84a26.78 26.78 0 01-4.437-4.4 5.6 5.6 0 01-1.054-3.54 4.807 4.807 0 014.666-4.57c1.863 0 3.216 1.54 3.943 2.37A1.52 1.52 0 0011 4.45a1.731 1.731 0 001.151-.81c.794-.87 2.122-2.32 3.851-2.32a4.807 4.807 0 014.666 4.57 5.528 5.528 0 01-1.054 3.54z"/></svg><svg aria-hidden="true" data-prefix="fas" data-icon="filter" class="csvg-inline--fa cfa-filter cfa-w-16" viewBox="0 0 512 512" id="filter-solid" xmlns="http://www.w3.org/2000/svg"><path d="M487.976 0H24.028C2.71 0-8.047 25.866 7.058 40.971L192 225.941V432c0 7.831 3.821 15.17 10.237 19.662l80 55.98C298.02 518.69 320 507.493 320 487.98V225.941l184.947-184.97C520.021 25.896 509.338 0 487.976 0z"/></svg><svg viewBox="0 0 18.03 11.41" id="google__plus-icon" xmlns="http://www.w3.org/2000/svg"><path data-name="Union 1" class="dcls-1" d="M5.36 11.39A5.653 5.653 0 01.12 6.9a5.314 5.314 0 01-.11-1.54A5.573 5.573 0 011.3 2.11 5.683 5.683 0 014.37.15a4.271 4.271 0 01.94-.14c.18-.01.36-.02.55-.02a5.311 5.311 0 012.69.74 6.276 6.276 0 011.01.74c-.57.56-1.11 1.11-1.67 1.66a3.053 3.053 0 00-1.67-.81 4.051 4.051 0 00-.48-.04 3.429 3.429 0 00-3.29 2.67 2.977 2.977 0 00-.08 1.03A3.429 3.429 0 004.7 8.95a3.365 3.365 0 001 .15c.08 0 .15-.01.23-.01a3.427 3.427 0 001.67-.53 2.65 2.65 0 001.13-1.72H5.68c0-.08.01-1.5.01-2.2l.01-.09h5.36a6.171 6.171 0 01-1.01 4.81 5.029 5.029 0 01-2.82 1.84 6.2 6.2 0 01-1.54.2c-.11 0-.22-.01-.33-.01zm10.59-3.22h-1.51v-.06l.02-1.93h-1.99v-.06l.01-1.44v-.06h1.99l.01-1.93.01-.06h1.55v.06l-.01 1.93h1.99v.06l-.01 1.44v.06h-1.99L16 8.11v.06h-.05z"/></svg><svg viewBox="0 0 20 20" id="grid-icon" xmlns="http://www.w3.org/2000/svg"><rect width="5.128" height="20" rx="2"/><rect x="7.693" width="12.051" height="6.41" rx="2"/><rect x="7.693" y="8.974" width="12.051" height="11.026" rx="2"/></svg><svg viewBox="0 0 13 14" id="instagram-icon" xmlns="http://www.w3.org/2000/svg"><path d="M6.437 1.256c1.723 0 1.92.01 2.604.04.624.03.97.131 1.198.222.297.12.515.262.743.493.228.232.366.443.485.755.09.232.198.574.218 1.218.03.694.04.896.04 2.647 0 1.752-.01 1.953-.04 2.647-.03.634-.129.987-.218 1.218a2.093 2.093 0 01-.485.755 1.972 1.972 0 01-.743.493c-.228.09-.564.202-1.198.222-.683.03-.881.04-2.604.04s-1.921-.01-2.605-.04c-.624-.03-.97-.131-1.198-.222a2.054 2.054 0 01-.743-.493 2.011 2.011 0 01-.485-.755c-.089-.231-.198-.573-.218-1.218-.03-.694-.04-.895-.04-2.647 0-1.751.01-1.953.04-2.647.03-.634.129-.986.218-1.218.119-.302.258-.523.485-.755.228-.231.436-.372.743-.493.228-.09.564-.201 1.198-.221.674-.03.882-.04 2.605-.04zm0-1.177c-1.753 0-1.971.01-2.654.04-.684.03-1.159.14-1.565.302a3.182 3.182 0 00-1.139.755 3.245 3.245 0 00-.742 1.157c-.159.413-.268.896-.297 1.59C.01 4.619 0 4.85 0 6.622 0 8.403.01 8.624.04 9.32c.03.694.138 1.177.297 1.59.168.433.386.795.742 1.157.357.363.713.584 1.14.755.405.161.88.272 1.564.302.683.03.91.04 2.654.04 1.752 0 1.97-.01 2.653-.04.684-.03 1.159-.14 1.565-.302a3.183 3.183 0 001.139-.755c.356-.362.574-.724.742-1.157.159-.413.268-.896.298-1.59.03-.695.04-.926.04-2.698 0-1.771-.01-2.003-.04-2.697-.03-.695-.14-1.178-.297-1.59a3.246 3.246 0 00-.743-1.158A3.183 3.183 0 0010.655.42C10.249.26 9.774.149 9.09.119c-.683-.03-.91-.04-2.653-.04z"/><path d="M6.437 3.27c-1.832 0-3.308 1.51-3.308 3.361 0 1.852 1.485 3.362 3.308 3.362 1.831 0 3.307-1.51 3.307-3.362S8.259 3.27 6.437 3.27zm0 5.545c-1.189 0-2.15-.976-2.15-2.184 0-1.208.961-2.184 2.15-2.184 1.188 0 2.148.976 2.148 2.184 0 1.208-.96 2.184-2.148 2.184zM9.873 3.914a.779.779 0 00.772-.785.779.779 0 00-.772-.785.779.779 0 00-.773.785c0 .433.346.785.773.785z"/></svg><svg viewBox="0 0 19 18" id="like-icon" xmlns="http://www.w3.org/2000/svg"><path d="M18.111 4.093a5.586 5.586 0 00-1.222-1.779A5.7 5.7 0 0012.884.685a5.738 5.738 0 00-3.603 1.27A5.738 5.738 0 005.678.685a5.7 5.7 0 00-4.004 1.629A5.552 5.552 0 000 6.282c0 .716.146 1.461.436 2.22a9.94 9.94 0 001.036 1.955c.704 1.05 1.673 2.146 2.876 3.257A32.166 32.166 0 008.4 16.878l.51.327a.69.69 0 00.74 0l.51-.327a32.577 32.577 0 004.052-3.164c1.203-1.111 2.172-2.207 2.877-3.257a9.826 9.826 0 001.035-1.955c.29-.759.436-1.504.436-2.22a5.47 5.47 0 00-.449-2.19zm-8.83 11.412s-7.648-4.9-7.648-9.223c0-2.19 1.811-3.964 4.045-3.964 1.57 0 2.933.877 3.603 2.157a4.057 4.057 0 013.603-2.157c2.235 0 4.046 1.775 4.046 3.964 0 4.323-7.649 9.223-7.649 9.223z"/></svg><svg viewBox="0 0 20 20" id="list-icon" xmlns="http://www.w3.org/2000/svg"><rect width="8.718" height="8.718" rx="2"/><rect y="11.282" width="8.718" height="8.718" rx="2"/><rect x="11.026" width="8.718" height="3.077" rx="1.538"/><rect x="11.026" y="11.282" width="8.718" height="3.077" rx="1.538"/><rect x="11.026" y="5.641" width="8.718" height="3.077" rx="1.538"/><rect x="11.026" y="16.923" width="8.718" height="3.077" rx="1.538"/></svg><svg viewBox="0 0 19 19" id="message-icon" xmlns="http://www.w3.org/2000/svg"><path clip-rule="evenodd" d="M15.625.75a2.629 2.629 0 012.62 2.471l.005.154v8.75a2.629 2.629 0 01-2.471 2.62l-.154.005h-3.063L10.2 17.9a.874.874 0 01-1.334.078L8.8 17.9l-2.363-3.15H3.376a2.629 2.629 0 01-2.62-2.471l-.005-.154v-8.75A2.629 2.629 0 013.221.755L3.375.75h12.25zm0 1.75H3.375a.877.877 0 00-.87.773l-.005.102v8.75c0 .448.339.818.773.87l.102.005h3.5c.241 0 .47.1.634.272l.066.078L9.5 15.916l1.925-2.566a.874.874 0 01.598-.344l.102-.006h3.5a.877.877 0 00.87-.773l.005-.102v-8.75a.877.877 0 00-.773-.87l-.102-.005zm-1.75 6.125a.875.875 0 01.102 1.744l-.102.006h-8.75a.875.875 0 01-.102-1.744l.102-.006h8.75zm0-3.5a.875.875 0 01.102 1.744l-.102.006h-8.75a.875.875 0 01-.102-1.744l.102-.006h8.75z"/></svg><svg viewBox="0 0 16 16" id="search-icon" xmlns="http://www.w3.org/2000/svg"><path clip-rule="evenodd" d="M11.244 10.174l4.035 4.035a.756.756 0 11-1.07 1.07l-4.035-4.035a6 6 0 111.07-1.07zM6.5 11a4.5 4.5 0 100-9 4.5 4.5 0 000 9z"/></svg><svg viewBox="0 0 16 17" id="share-icon" xmlns="http://www.w3.org/2000/svg"><path fill-rule="evenodd" clip-rule="evenodd" d="M10.559 12.108a3.036 3.036 0 012.403-1.187A3.04 3.04 0 0112.966 17a3.041 3.041 0 01-3.035-3.04c0-.352.064-.695.177-1.012l-4.66-2.609a3.033 3.033 0 01-2.41 1.197A3.042 3.042 0 010 8.496a3.041 3.041 0 013.034-3.039c.98 0 1.854.466 2.407 1.193l4.656-2.605A3.04 3.04 0 0112.959 0a3.04 3.04 0 010 6.078c-.98 0-1.854-.469-2.407-1.193L5.892 7.49A3.054 3.054 0 015.897 9.5l4.663 2.609zm4.486-9.065c0-1.151-.934-2.086-2.083-2.086a2.086 2.086 0 000 4.172 2.086 2.086 0 002.083-2.086zm-12.007 7.54a2.086 2.086 0 010-4.173 2.086 2.086 0 010 4.173zm7.841 3.374c0 1.151.934 2.086 2.083 2.086a2.086 2.086 0 000-4.172 2.086 2.086 0 00-2.083 2.086z"/></svg><svg viewBox="0 0 14.31 11.62" id="twitter-icon" xmlns="http://www.w3.org/2000/svg"><path data-name="Path 2" class="lcls-1" d="M14.31 1.4c-.11.16-.21.3-.33.45a5.7 5.7 0 01-1.07 1.01l-.05.09a8.22 8.22 0 01-.07 1.31 8.818 8.818 0 01-.77 2.61 8.712 8.712 0 01-1.6 2.3 7.864 7.864 0 01-4.05 2.25 8.967 8.967 0 01-1.64.2h-.26a8.172 8.172 0 01-4.42-1.27l-.07-.04a5.322 5.322 0 00.69.04 6.049 6.049 0 002.25-.44 5.834 5.834 0 001.4-.82 2.9 2.9 0 01-2.71-2.03 3.287 3.287 0 00.54.05 2.82 2.82 0 00.71-.09L2.91 7A2.9 2.9 0 01.59 4.1a2.914 2.914 0 001.31.35A2.914 2.914 0 01.7 2.67 2.877 2.877 0 011.04.55a8.311 8.311 0 006.02 3.07c-.02-.12-.03-.22-.05-.33a2.8 2.8 0 01.45-1.91A2.853 2.853 0 019.45.05a3.439 3.439 0 01.54-.04 2.833 2.833 0 012.03.86.139.139 0 00.1.05.09.09 0 00.05-.01 5.547 5.547 0 001.71-.65l.04-.02a2.919 2.919 0 01-1.25 1.6 5.859 5.859 0 001.64-.44z"/></svg></svg>